<?xml version="1.0" standalone="no"?>
<!DOCTYPE svg PUBLIC "-//W3C//DTD SVG 20010904//EN"
 "http://www.w3.org/TR/2001/REC-SVG-20010904/DTD/svg10.dtd">
<svg version="1.0" xmlns="http://www.w3.org/2000/svg"
 width="1024.000000pt" height="312.000000pt" viewBox="0 0 1024.000000 312.000000"
 preserveAspectRatio="xMidYMid meet">

<g transform="translate(0.000000,312.000000) scale(0.100000,-0.100000)"
fill="#000000" stroke="none">
<path d="M1418 2828 c-13 -3 -51 -12 -86 -19 -62 -12 -63 -13 -56 -38 4 -14 8
-36 8 -48 1 -13 4 -23 8 -23 3 0 14 -24 24 -52 9 -29 21 -59 27 -65 5 -7 6
-13 3 -13 -4 0 -2 -8 3 -18 9 -17 15 -18 83 -6 69 12 185 12 289 0 118 -14
313 -83 403 -143 26 -17 44 -23 53 -17 58 40 232 170 233 174 0 10 -157 109
-235 148 -97 48 -247 96 -370 117 -90 16 -336 18 -387 3z"/>
<path d="M2470 2212 c-89 -64 -175 -126 -191 -137 -102 -73 -345 -250 -349
-255 -10 -12 -332 -240 -339 -240 -7 0 -125 71 -374 227 -65 40 -120 73 -122
73 -3 0 -5 -78 -5 -173 0 -153 2 -176 18 -189 16 -15 157 -105 232 -148 19
-11 85 -51 145 -89 61 -38 112 -66 115 -62 3 4 66 51 140 104 125 90 340 246
729 530 85 62 181 131 214 154 33 23 69 51 81 62 19 20 20 21 2 58 -24 52
-103 178 -119 192 -11 9 -49 -14 -177 -107z"/>
<path d="M9964 1780 c0 -52 1 -74 3 -47 2 26 2 68 0 95 -2 26 -3 4 -3 -48z"/>
<path d="M2820 1719 c-30 -23 -88 -64 -128 -92 -41 -29 -74 -60 -77 -72 -2
-11 -6 -58 -9 -106 -17 -266 -189 -562 -428 -733 l-55 -40 34 -135 c19 -75 36
-137 38 -139 4 -4 79 34 130 67 284 183 489 490 561 841 27 129 24 450 -4 450
-4 0 -32 -19 -62 -41z"/>
</g>
</svg>
